HIERARCHY
ROOT Pelvis
{
	OFFSET 0.000000 0.000000 0.000000
	CHANNELS 6 Xposition Yposition Zposition Xrotation Yrotation Zrotation
	JOINT LeftUpLeg_virtual
	{
		OFFSET 0.000000 0.000000 0.000000
		CHANNELS 3 Xrotation Yrotation Zrotation
		JOINT LeftUpLeg
		{
			OFFSET 18.735201 -5.666702 -4.541200
			CHANNELS 3 Xrotation Yrotation Zrotation
			JOINT LeftLeg
			{
				OFFSET -0.021200 -31.938179 0.493100
				CHANNELS 3 Xrotation Yrotation Zrotation
				JOINT LeftFoot
				{
					OFFSET 0.021200 -31.938179 -4.336299
					CHANNELS 3 Xrotation Yrotation Zrotation
					JOINT LeftToeBase
					{
						OFFSET 0.943001 -26.722000 15.023500
						CHANNELS 3 Xrotation Yrotation Zrotation
						End Site
						{
							OFFSET 0 0 0
						}
					}
				}
			}
		}
	}
	JOINT RightUpLeg_virtual
	{
		OFFSET 0.000000 0.000000 0.000000
		CHANNELS 3 Xrotation Yrotation Zrotation
		JOINT RightUpLeg
		{
			OFFSET -18.735201 -5.666702 -4.541200
			CHANNELS 3 Xrotation Yrotation Zrotation
			JOINT RightLeg
			{
				OFFSET 0.018946 -31.938133 0.493100
				CHANNELS 3 Xrotation Yrotation Zrotation
				JOINT RightFoot
				{
					OFFSET -0.018946 -31.938126 -4.336299
					CHANNELS 3 Xrotation Yrotation Zrotation
					JOINT RightToeBase
					{
						OFFSET -0.943001 -26.722004 15.023500
						CHANNELS 3 Xrotation Yrotation Zrotation
						End Site
						{
							OFFSET 0 0 0
						}
					}
				}
			}
		}
	}
	JOINT Hips_virtual
	{
		OFFSET 0.000000 0.000000 0.000000
		CHANNELS 3 Xrotation Yrotation Zrotation
		JOINT Hips
		{
			OFFSET -0.000000 -0.000000 -0.000000
			CHANNELS 3 Xrotation Yrotation Zrotation
			JOINT Spine
			{
				OFFSET 0.000000 10.199997 -0.299500
				CHANNELS 3 Xrotation Yrotation Zrotation
				JOINT Spine1
				{
					OFFSET 0.000000 11.900002 -1.516600
					CHANNELS 3 Xrotation Yrotation Zrotation
					JOINT Spine2
					{
						OFFSET 0.000000 13.600006 -2.842500
						CHANNELS 3 Xrotation Yrotation Zrotation
						JOINT Neck_virtual
						{
							OFFSET 0.000000 0.000000 0.000000
							CHANNELS 3 Xrotation Yrotation Zrotation
							JOINT Neck
							{
								OFFSET 0.000000 9.624100 -2.890100
								CHANNELS 3 Xrotation Yrotation Zrotation
								JOINT Head
								{
									OFFSET 0.000000 14.068802 -1.351900
									CHANNELS 3 Xrotation Yrotation Zrotation
									End Site
									{
										OFFSET 0 0 0
									}
								}
							}
						}
						JOINT LeftShoulder_virtual
						{
							OFFSET 0.000000 0.000000 0.000000
							CHANNELS 3 Xrotation Yrotation Zrotation
							JOINT LeftShoulder
							{
								OFFSET 15.263000 10.923401 -0.547700
								CHANNELS 3 Xrotation Yrotation Zrotation
								JOINT LeftArm
								{
									OFFSET 25.438599 -2.830597 -13.032500
									CHANNELS 3 Xrotation Yrotation Zrotation
									JOINT LeftForeArm
									{
										OFFSET 29.960503 0.000000 0.000000
										CHANNELS 3 Xrotation Yrotation Zrotation
										JOINT LeftHand
										{
											OFFSET 27.849251 0.000000 0.000000
											CHANNELS 3 Xrotation Yrotation Zrotation
											End Site
											{
												OFFSET 0 0 0
											}
										}
									}
								}
							}
						}
						JOINT RightShoulder_virtual
						{
							OFFSET 0.000000 0.000000 0.000000
							CHANNELS 3 Xrotation Yrotation Zrotation
							JOINT RightShoulder
							{
								OFFSET -15.263000 10.923401 -0.547700
								CHANNELS 3 Xrotation Yrotation Zrotation
								JOINT RightArm
								{
									OFFSET -25.438599 -2.830597 -13.032500
									CHANNELS 3 Xrotation Yrotation Zrotation
									JOINT RightForeArm
									{
										OFFSET -29.960503 0.000000 0.000000
										CHANNELS 3 Xrotation Yrotation Zrotation
										JOINT RightHand
										{
											OFFSET -27.849251 0.000000 0.000000
											CHANNELS 3 Xrotation Yrotation Zrotation
											End Site
											{
												OFFSET 0 0 0
											}
										}
									}
								}
							}
						}
					}
				}
			}
		}
	}
}
MOTION
Frames: 11
Frame Time: 0.03333333
-3.932316 87.092209 2.024351 0.000000 0.000000 0.000000 0.511852 -42.765484 0.190135 -41.623822 -1.208382 14.472823 42.637651 -6.935852 -0.967819 -8.053097 -6.642256 -11.213445 0.000000 0.000000 0.000000 13.024624 -36.091423 2.575169 -16.267240 -16.331619 -18.458366 33.973600 -4.056804 1.813038 -17.042265 -8.899662 11.730962 0.000000 0.000000 0.000000 1.447393 -12.757387 -0.530753 -13.355831 -41.178866 -6.413596 14.489988 10.013574 -3.191627 7.335197 6.299522 -2.196733 0.000000 0.000000 0.000000 7.774946 5.546967 -2.365247 1.059700 2.079405 -0.468372 0.000000 0.000000 0.000000 8.400303 7.102995 -2.810787 4.263183 6.352354 -9.602102 -0.916231 -9.524014 -52.647925 1.653176 -44.149045 -3.760592 0.000000 0.000000 0.000000 8.550732 5.997744 -0.342589 2.134627 17.495941 7.793613 -10.051425 -7.205027 49.305261 -4.298852 31.684742 9.357473 0.000000 0.000000 0.000000 
-2.979288 87.678726 2.027504 0.000000 0.000000 0.000000 0.108242 -43.375038 -0.097457 -42.092311 -1.338435 14.311125 43.045198 -7.531346 -1.239488 -7.649890 -7.156253 -12.107524 0.000000 0.000000 0.000000 13.338814 -35.245613 2.943488 -15.746064 -16.245354 -17.900973 34.517372 -3.926952 2.185904 -16.821602 -8.942750 12.346461 0.000000 0.000000 0.000000 -0.938310 -10.027893 -2.292264 -8.201485 -42.003833 -3.601001 13.167429 10.353244 -3.540026 6.860152 6.592119 -2.243492 0.000000 0.000000 0.000000 7.462768 5.660270 -2.804482 0.955297 2.109104 -0.364969 0.000000 0.000000 0.000000 8.006825 7.160647 -2.961031 4.180552 5.526840 -9.406048 -3.069666 -8.979258 -53.704849 3.207171 -46.270403 -1.974652 0.000000 0.000000 0.000000 8.718946 6.417347 -0.954880 3.328273 16.405032 7.828934 -9.257884 -11.028822 49.115293 -5.683822 29.482638 10.283529 0.000000 0.000000 0.000000 
-2.429573 87.188469 2.002745 0.000000 0.000000 0.000000 0.277548 -42.646123 0.296784 -42.031765 -1.271483 14.696883 43.463441 -7.759624 -1.256126 -7.108805 -7.442885 -12.359909 0.000000 0.000000 0.000000 14.679144 -34.329125 4.179979 -14.104625 -16.387125 -16.665375 34.376684 -4.096459 2.632435 -16.998485 -9.329668 12.884632 0.000000 0.000000 0.000000 0.186605 -8.712725 -1.339021 -9.179186 -43.425629 -3.937868 12.428241 10.247353 -4.013867 5.793296 6.688783 -2.310303 0.000000 0.000000 0.000000 7.902327 5.853070 -2.677653 0.845956 2.087471 -0.265066 0.000000 0.000000 0.000000 8.307936 7.966454 -2.980660 3.936526 4.989821 -10.089974 -4.610996 -6.576151 -56.349566 3.184627 -44.964921 -2.004779 0.000000 0.000000 0.000000 8.934138 6.852219 -1.339408 3.888601 15.993223 8.112694 -7.825986 -9.594000 51.078972 -5.694020 26.870118 9.964188 0.000000 0.000000 0.000000 
-2.514216 87.232681 2.093739 0.000000 0.000000 0.000000 0.206588 -42.113020 0.418643 -42.113290 -1.223786 14.885695 43.919380 -7.720460 -1.339663 -6.482097 -7.453005 -12.527954 0.000000 0.000000 0.000000 14.115432 -33.340469 4.313817 -14.521525 -16.051728 -16.076911 35.312747 -4.391394 2.616795 -16.434830 -9.534508 12.656454 0.000000 0.000000 0.000000 -0.194596 -7.677154 -1.638641 -6.838060 -42.889005 -3.088904 11.537211 9.981857 -3.157552 6.375517 6.895599 -2.800382 0.000000 0.000000 0.000000 8.452984 5.834669 -2.893311 0.902675 2.258474 -0.345292 0.000000 0.000000 0.000000 9.694244 7.715478 -3.267801 3.869712 3.537710 -9.464158 -5.862199 -8.640644 -57.079341 1.821905 -46.814523 -2.226321 0.000000 0.000000 0.000000 10.088294 7.148664 -1.754690 3.490518 14.757766 8.982917 -6.189049 -10.865543 52.883945 -5.579401 30.629054 11.061585 0.000000 0.000000 0.000000 
-2.413484 86.756027 1.985018 0.000000 0.000000 0.000000 -0.089610 -43.369270 0.285078 -42.501829 -1.569422 14.780582 44.021696 -7.610034 -1.401749 -6.440958 -7.291604 -12.543007 0.000000 0.000000 0.000000 14.229522 -33.322461 4.136419 -14.432029 -16.043838 -16.308444 35.411146 -4.667085 2.750037 -16.655259 -9.826181 12.652683 0.000000 0.000000 0.000000 1.255630 -7.026870 -2.013774 -11.268951 -44.500776 -5.055980 12.337535 9.786109 -3.463706 6.330105 6.497304 -2.613101 0.000000 0.000000 0.000000 8.668144 5.602021 -2.770996 0.617162 1.947167 -0.186184 0.000000 0.000000 0.000000 9.725062 7.556875 -3.469132 3.894921 3.733414 -9.857156 -3.713534 -6.706408 -55.471542 1.958624 -46.277199 -1.541765 0.000000 0.000000 0.000000 10.388871 7.125062 -1.699254 3.841405 13.906238 9.763971 -3.826035 -11.194020 53.221295 -4.718476 30.969976 11.138077 0.000000 0.000000 0.000000 
-2.367115 86.246643 2.253305 0.000000 0.000000 0.000000 0.150411 -44.770766 0.898693 -42.694905 -2.104952 15.281100 44.418059 -8.132932 -1.593338 -6.200646 -7.727186 -13.235693 0.000000 0.000000 0.000000 13.943024 -34.050808 4.367321 -14.545984 -16.253699 -15.941076 35.111738 -5.737697 2.720704 -16.692414 -10.781419 11.928662 0.000000 0.000000 0.000000 -1.037642 -10.832393 -1.268426 -9.214496 -38.419104 -3.884775 11.150305 8.754104 -2.757796 6.769472 6.164354 -2.586856 0.000000 0.000000 0.000000 8.554684 5.410647 -2.746198 0.802649 1.804425 -0.206218 0.000000 0.000000 0.000000 9.319699 7.457576 -3.645397 3.586232 3.038730 -9.856611 -5.347254 -7.094045 -56.379137 1.604168 -48.836915 -1.719631 0.000000 0.000000 0.000000 10.731282 6.901736 -1.892777 3.643449 12.704755 9.300807 -5.860288 -11.537227 52.084096 -3.743675 28.264743 10.076891 0.000000 0.000000 0.000000 
-2.130009 86.563545 1.552334 0.000000 0.000000 0.000000 -0.779988 -44.293992 0.244924 -43.554043 -1.980443 15.013248 44.436241 -7.852953 -1.703419 -6.015129 -7.424101 -13.238169 0.000000 0.000000 0.000000 13.745220 -33.178197 4.161408 -14.449574 -15.955192 -15.833195 34.779603 -5.485105 3.100106 -16.954387 -10.766863 12.638500 0.000000 0.000000 0.000000 1.626910 -11.144878 0.024367 -9.851798 -38.757243 -4.728753 11.557941 9.197184 -2.516239 7.475655 5.576419 -2.429956 0.000000 0.000000 0.000000 8.315507 5.443061 -2.766204 0.335644 1.670942 -0.329713 0.000000 0.000000 0.000000 9.236916 7.456271 -3.417906 3.575845 1.993893 -9.243795 -3.590003 -5.941779 -54.513195 1.317496 -50.335677 -1.557713 0.000000 0.000000 0.000000 10.229153 7.088699 -1.933440 3.096022 10.897343 8.974544 -3.351723 -10.900923 52.481900 -2.752717 28.232864 9.781187 0.000000 0.000000 0.000000 
-2.506181 87.480255 1.461586 0.000000 0.000000 0.000000 -0.124352 -44.853022 0.799067 -43.193406 -2.148756 15.364562 45.442229 -8.019002 -1.777986 -5.310003 -7.558475 -13.550773 0.000000 0.000000 0.000000 13.830342 -32.410112 4.339303 -14.459927 -15.791659 -15.569910 33.627811 -5.788176 2.685387 -17.791278 -10.859718 11.794948 0.000000 0.000000 0.000000 3.031029 -10.725054 0.269421 -12.542625 -39.330610 -4.657518 12.772274 8.950160 -2.546201 7.389803 5.533112 -2.805077 0.000000 0.000000 0.000000 8.948297 5.430177 -3.214836 0.295861 1.311281 -0.296131 0.000000 0.000000 0.000000 9.515587 7.054718 -3.648719 3.095135 1.738025 -9.293328 -2.439534 -2.429842 -55.981521 -0.129013 -51.476195 -1.896867 0.000000 0.000000 0.000000 10.822834 7.046623 -2.277528 2.492212 9.580295 10.528292 -1.579316 -10.121928 52.826374 -2.729020 29.666462 10.230106 0.000000 0.000000 0.000000 
-2.063523 87.682602 1.467625 0.000000 0.000000 0.000000 -0.630141 -44.575351 0.320391 -43.657015 -1.999389 15.130524 46.059971 -8.052022 -1.535942 -5.002277 -7.692601 -13.240839 0.000000 0.000000 0.000000 14.452711 -31.527060 4.992135 -13.756571 -15.737406 -14.843683 34.855828 -6.278819 2.441371 -16.931716 -11.094352 11.093909 0.000000 0.000000 0.000000 4.446501 -10.310592 1.175056 -12.853001 -37.511843 -3.951199 12.700918 8.708721 -2.534112 7.414044 5.361103 -2.598748 0.000000 0.000000 0.000000 8.833627 5.609910 -3.112704 0.116262 1.356605 -0.304530 0.000000 0.000000 0.000000 9.364101 7.010322 -3.443705 3.107855 1.208173 -8.286079 -1.877816 -2.383640 -54.385818 0.047283 -51.038319 -1.399373 0.000000 0.000000 0.000000 10.804802 6.995253 -2.091666 2.659688 9.292117 11.144558 -2.004008 -9.626201 52.417051 -2.559729 30.096491 9.700105 0.000000 0.000000 0.000000 
-2.026729 87.335274 3.158222 0.000000 0.000000 0.000000 -1.636352 -44.002906 -0.527048 -44.480422 -1.786837 14.676470 46.342191 -8.091505 -1.689359 -4.936560 -7.622242 -13.526314 0.000000 0.000000 0.000000 14.402900 -31.426998 4.888568 -13.763211 -15.697894 -14.898466 33.888475 -6.898391 2.444884 -17.576209 -11.707888 10.704687 0.000000 0.000000 0.000000 5.222352 -9.898587 1.437047 -13.365415 -36.598203 -5.711055 12.547360 8.333767 -2.171602 7.207777 5.101216 -2.450259 0.000000 0.000000 0.000000 8.353570 5.494161 -3.188276 -0.177636 1.416587 -0.445576 0.000000 0.000000 0.000000 9.118425 6.732429 -3.250890 3.163950 1.671481 -8.420553 -1.409414 -0.992128 -52.885653 -0.295129 -50.144698 -1.111422 0.000000 0.000000 0.000000 11.023668 6.918873 -1.978311 2.709160 9.122107 11.040996 -0.883626 -9.168506 52.351498 -1.961543 32.496220 9.196131 0.000000 0.000000 0.000000 
-1.940483 87.234001 1.914280 0.000000 0.000000 0.000000 -1.550971 -44.573456 -0.870657 -44.114583 -1.784705 14.221175 47.073749 -8.089059 -1.707316 -4.437814 -7.607895 -13.609208 0.000000 0.000000 0.000000 14.434749 -30.843597 4.682744 -13.489529 -15.523275 -14.957529 33.416410 -7.614491 2.217340 -17.901910 -12.250761 9.898962 0.000000 0.000000 0.000000 5.876488 -9.076619 1.451254 -12.018473 -36.421137 -5.684006 12.694918 8.174168 -2.290155 7.170321 4.988443 -2.344115 0.000000 0.000000 0.000000 7.968555 5.329102 -3.180909 -0.425107 1.428595 -0.504595 0.000000 0.000000 0.000000 9.004679 6.441571 -3.108400 3.002739 1.423168 -8.268377 -2.139741 -1.480814 -51.778472 -0.017315 -50.931764 -0.525906 0.000000 0.000000 0.000000 10.870991 6.785303 -1.928489 2.768809 8.750577 11.455008 1.017720 -9.460525 52.197801 -1.672167 33.244942 8.723101 0.000000 0.000000 0.000000 
